<svg width="20" height="20" viewBox="0 0 20 20" fill="none" xmlns="http://www.w3.org/2000/svg">
<path d="M10.0001 18.0423C9.74175 18.0423 9.49175 18.009 9.28341 17.934C6.10008 16.8423 1.04175 12.9673 1.04175 7.24232C1.04175 4.32565 3.40008 1.95898 6.30008 1.95898C7.70841 1.95898 9.02508 2.50898 10.0001 3.49232C10.9751 2.50898 12.2917 1.95898 13.7001 1.95898C16.6001 1.95898 18.9584 4.33398 18.9584 7.24232C18.9584 12.9757 13.9001 16.8423 10.7167 17.934C10.5084 18.009 10.2584 18.0423 10.0001 18.0423ZM6.30008 3.20898C4.09175 3.20898 2.29175 5.01732 2.29175 7.24232C2.29175 12.934 7.76675 16.1007 9.69175 16.759C9.84175 16.809 10.1667 16.809 10.3167 16.759C12.2334 16.1007 17.7167 12.9423 17.7167 7.24232C17.7167 5.01732 15.9167 3.20898 13.7084 3.20898C12.4417 3.20898 11.2667 3.80065 10.5084 4.82565C10.2751 5.14232 9.74175 5.14232 9.50841 4.82565C8.73341 3.79232 7.56675 3.20898 6.30008 3.20898Z" fill="#1B5E37"/>
</svg>
