<svg width="35" height="38" viewBox="0 0 35 38" fill="none" xmlns="http://www.w3.org/2000/svg">
<rect y="1" width="35" height="35" fill="white"/>
<g clip-path="url(#clip0_68_1663)">
<path d="M30.9116 24.7644C30.9116 24.8198 30.9107 24.8763 30.9107 24.9327C30.9062 25.4118 30.8758 25.8855 30.8204 26.3529C30.6836 27.5189 30.394 28.6419 29.9721 29.7004C29.9524 29.7497 29.9328 29.7989 29.9122 29.8481C29.8916 29.8965 29.871 29.9457 29.8514 29.995C29.8299 30.0433 29.8093 30.0926 29.7879 30.1409C29.7772 30.1642 29.7664 30.1875 29.7566 30.2116C29.7432 30.2412 29.7298 30.2708 29.7164 30.3003C29.6949 30.3478 29.6726 30.3961 29.6502 30.4445C27.8526 34.2611 24.294 37.099 20.0157 37.7984C19.9594 37.8074 19.9031 37.8164 19.8468 37.8244C19.6332 37.8557 19.4177 37.8826 19.2014 37.9041C18.817 37.9409 18.4282 37.9605 18.034 37.9633C10.8425 38.0055 5 32.1784 5 24.9838C5 24.8683 5.00178 24.7528 5.00445 24.6381C5.00623 24.5808 5.00801 24.5235 5.01068 24.4662C5.01247 24.4241 5.01425 24.3819 5.01692 24.3398C5.02858 24.0962 5.04817 23.8545 5.07506 23.6145C5.08673 23.5061 5.10008 23.3977 5.11442 23.2903C5.14033 23.1005 5.17069 22.9115 5.20471 22.7234C5.21539 22.6688 5.22527 22.6133 5.23685 22.5578C5.25653 22.4556 5.27799 22.3536 5.30034 22.2524C5.31013 22.2094 5.32001 22.1664 5.3307 22.1234C5.41921 21.7446 5.52561 21.3721 5.64804 21.0058C5.66505 20.9539 5.68295 20.9019 5.70164 20.85C5.71598 20.807 5.73112 20.7649 5.74723 20.7219C5.77938 20.6315 5.81339 20.5419 5.84821 20.4523C5.86432 20.4093 5.88124 20.3672 5.89825 20.3251C5.92594 20.2553 5.95452 20.1854 5.98408 20.1156C6.00732 20.0601 6.03145 20.0045 6.05558 19.9491C6.07971 19.8936 6.10384 19.8389 6.12886 19.7843C6.15745 19.7216 6.18701 19.659 6.21559 19.5972C6.23794 19.5506 6.26029 19.504 6.28353 19.4575C6.31033 19.4029 6.33713 19.3491 6.36402 19.2954C6.39171 19.2417 6.41851 19.1879 6.44719 19.1351C6.47488 19.0814 6.50257 19.0285 6.53213 18.9757C6.56071 18.9229 6.58938 18.87 6.61886 18.8181C6.64477 18.7715 6.67157 18.7249 6.69837 18.6793C6.85571 18.4052 7.02373 18.1375 7.20163 17.876C7.22932 17.8339 7.2579 17.7918 7.28747 17.7507C7.83632 16.9617 8.47011 16.2346 9.1754 15.5808C9.43825 15.3381 9.71081 15.1053 9.99245 14.8832C14.3341 11.4605 16.3016 5.8268 15.0448 0.437575C14.9662 0.0999463 15.2728 0.00235963 15.4605 0.046247C15.4694 0.048923 15.4784 0.0515991 15.4873 0.0542751C15.4917 0.0560592 15.4971 0.0578431 15.5016 0.0587352C15.5624 0.0793408 15.6231 0.0990545 15.6831 0.120552C15.8404 0.174252 15.9968 0.231608 16.1515 0.29066C16.1962 0.307697 16.2409 0.325627 16.2847 0.342575C16.3383 0.364073 16.392 0.385571 16.4447 0.407068C16.4894 0.424998 16.5332 0.442928 16.577 0.46166C16.628 0.483158 16.678 0.504655 16.7281 0.526153C16.7844 0.550327 16.8408 0.575392 16.897 0.600458C17.0258 0.657815 17.1536 0.716867 17.2805 0.777792C17.3368 0.804641 17.3932 0.832383 17.4486 0.860214C17.5559 0.913022 17.6631 0.967702 17.7695 1.02319C17.824 1.05182 17.8777 1.07956 17.9313 1.10918C17.9965 1.14414 18.0609 1.17902 18.1252 1.21577C18.5105 1.42888 18.8885 1.65902 19.2605 1.90441C19.3257 1.94741 19.3901 1.9904 19.4545 2.03429C19.9622 2.37905 20.4574 2.75335 20.9384 3.15279C20.9983 3.20203 21.0572 3.25216 21.1163 3.30238C21.3048 3.46268 21.4917 3.62654 21.6759 3.79496C21.734 3.84866 21.7921 3.90244 21.8502 3.95614C22.1497 4.23463 22.4429 4.52391 22.7308 4.82301C22.7799 4.87492 22.8299 4.92693 22.8792 4.97973C22.9418 5.04601 23.0043 5.11229 23.066 5.17946C23.1143 5.23227 23.1625 5.28516 23.2108 5.33797C23.2662 5.39889 23.3207 5.45884 23.3752 5.52066C23.436 5.58872 23.4959 5.65678 23.5558 5.72573C23.5978 5.77408 23.6399 5.82332 23.6819 5.87166C23.7409 5.94062 23.799 6.00957 23.8571 6.07852C23.9098 6.14212 23.9626 6.20483 24.0145 6.26835C24.0672 6.33195 24.12 6.39644 24.1709 6.46084C24.2201 6.52088 24.2683 6.58171 24.3157 6.64264C24.3469 6.68028 24.3765 6.71783 24.406 6.75637C24.448 6.80828 24.4891 6.86118 24.5293 6.91488C24.5633 6.95877 24.5972 7.00266 24.6303 7.04654C24.7312 7.1791 24.8305 7.31254 24.9297 7.44688C25.0298 7.58389 25.1291 7.72091 25.2265 7.85971C25.2739 7.92598 25.3194 7.99226 25.3659 8.05854C25.4133 8.1266 25.4607 8.19644 25.508 8.2654C25.5554 8.33435 25.6019 8.40419 25.6484 8.47404C25.6859 8.52863 25.7225 8.5842 25.7592 8.63969C26.4618 9.70627 27.1019 10.8292 27.6731 11.9872C27.7401 12.1233 27.8063 12.2594 27.8715 12.3964C28.1933 13.0708 28.491 13.7559 28.7645 14.4481C28.7949 14.5251 28.8253 14.6021 28.8548 14.6791C28.8852 14.7561 28.9147 14.8332 28.9433 14.911C28.9728 14.988 29.0015 15.0651 29.0301 15.143C29.0586 15.2199 29.0873 15.297 29.115 15.3749C29.2026 15.6176 29.2876 15.8611 29.3689 16.1047C29.3912 16.1728 29.4144 16.24 29.4359 16.308C29.4618 16.3859 29.4877 16.4639 29.5119 16.5417C29.5369 16.6205 29.5619 16.6985 29.586 16.7763C29.6522 16.9894 29.7166 17.2026 29.7773 17.4157C29.7889 17.4569 29.8005 17.4973 29.8122 17.5375C29.8292 17.5966 29.8452 17.6557 29.8622 17.7148C29.8837 17.7936 29.9052 17.8724 29.9266 17.9503C29.9472 18.0282 29.9677 18.107 29.9883 18.1849C30.0107 18.2673 30.0312 18.3497 30.0518 18.4321C30.0876 18.5745 30.1224 18.7168 30.1573 18.8593C30.1779 18.9479 30.1985 19.0366 30.219 19.1253C30.2529 19.2775 30.287 19.4288 30.3191 19.5811C30.32 19.5856 30.3209 19.59 30.3218 19.5946C30.3548 19.7504 30.3862 19.9054 30.4165 20.0602C30.5229 20.6074 30.6132 21.1527 30.6856 21.6937C30.6963 21.7715 30.7062 21.8486 30.716 21.9256C30.7195 21.956 30.7231 21.9856 30.7266 22.016C30.7445 22.1575 30.7607 22.2981 30.7749 22.4387C30.7838 22.5175 30.7919 22.5963 30.799 22.6742C30.8143 22.8309 30.8285 22.9876 30.8402 23.1426C30.8517 23.294 30.8625 23.4452 30.8714 23.5957C30.8768 23.6862 30.8821 23.7766 30.8858 23.8662C30.8893 23.9333 30.892 24.0014 30.8956 24.0686V24.073C30.8982 24.1465 30.9009 24.2199 30.9036 24.2925V24.3113C30.9053 24.3838 30.9071 24.4563 30.9089 24.5289C30.9107 24.6076 30.9116 24.6865 30.9116 24.7644Z" fill="url(#paint0_radial_68_1663)"/>
<path d="M25.0433 30.6393C24.2768 34.4074 20.5849 36.9018 16.8351 36.0799C13.1153 35.2646 10.773 31.5741 11.6078 27.8576C12.0371 25.9466 13.2624 24.4112 14.8554 23.4872C17.5507 21.9237 19.223 19.1475 19.6475 16.0564C19.6482 16.0512 19.649 16.0489 19.6499 16.0494C24.1395 18.4908 26.0724 25.58 25.0433 30.6393Z" fill="url(#paint1_radial_68_1663)"/>
<path d="M30.9116 24.7644C30.9116 24.8198 30.9107 24.8763 30.9107 24.9327C30.9045 25.4127 30.8731 25.8873 30.8177 26.3547C30.6792 27.5207 30.3913 28.6437 29.9721 29.7004C29.9524 29.7497 29.9328 29.7989 29.9122 29.8481C29.8916 29.8965 29.871 29.9457 29.8514 29.995C29.8299 30.0433 29.8093 30.0926 29.7879 30.1409C29.7772 30.1642 29.7664 30.1875 29.7566 30.2116C29.7432 30.2412 29.7298 30.2708 29.7164 30.3003C29.6949 30.3478 29.6726 30.3961 29.6502 30.4445C27.857 34.2665 24.3101 37.1036 20.0157 37.7984C19.9594 37.8074 19.9031 37.8164 19.8468 37.8244C19.6332 37.8566 19.4177 37.8826 19.2014 37.9041C18.817 37.9409 18.4282 37.9605 18.034 37.9633C10.8425 38.0055 5 32.1784 5 24.9838C5 24.8683 5.00178 24.7528 5.00445 24.6381C5.00623 24.5808 5.00801 24.5235 5.01068 24.4662C5.01247 24.4241 5.01425 24.3819 5.01692 24.3398C5.02858 24.0962 5.04817 23.8545 5.07506 23.6145C5.08673 23.5061 5.10008 23.3977 5.11442 23.2903C5.14033 23.1005 5.17069 22.9115 5.20471 22.7234C5.21539 22.6688 5.22527 22.6133 5.23685 22.5578C5.25653 22.4556 5.27799 22.3536 5.30034 22.2524C5.31013 22.2094 5.32001 22.1664 5.3307 22.1234C5.41921 21.7446 5.52561 21.3721 5.64804 21.0058C5.66505 20.9539 5.68295 20.9019 5.70164 20.85C5.71598 20.807 5.73112 20.7649 5.74723 20.7219C5.77938 20.6315 5.81339 20.5419 5.84821 20.4523C5.86432 20.4093 5.88124 20.3672 5.89825 20.3251C5.92594 20.2553 5.95452 20.1854 5.98408 20.1156C6.00732 20.0601 6.03145 20.0045 6.05558 19.9491C6.07971 19.8936 6.10384 19.8389 6.12886 19.7843C6.15745 19.7216 6.18701 19.659 6.21559 19.5972C6.23794 19.5506 6.26029 19.504 6.28353 19.4575C6.31033 19.4029 6.33713 19.3491 6.36402 19.2954C6.39171 19.2417 6.41851 19.1879 6.44719 19.1351C6.47488 19.0814 6.50257 19.0285 6.53213 18.9757C6.56071 18.9229 6.58938 18.87 6.61886 18.8181C6.64477 18.7715 6.67157 18.7249 6.69837 18.6793C6.85571 18.4052 7.02373 18.1375 7.20163 17.876C7.22932 17.8339 7.2579 17.7918 7.28747 17.7507C7.83632 16.9617 8.47011 16.2346 9.1754 15.5808C9.43825 15.3381 9.71081 15.1053 9.99245 14.8832C14.3341 11.4605 16.3016 5.8268 15.0448 0.437575C14.9662 0.0999463 15.2728 0.00235963 15.4605 0.046247C15.4694 0.048923 15.4784 0.0515991 15.4873 0.0542751C15.4917 0.0560592 15.4971 0.0578431 15.5016 0.0587352C15.5624 0.0793408 15.6231 0.0990545 15.6831 0.120552C15.8404 0.174252 15.9968 0.231608 16.1515 0.29066C16.1962 0.307697 16.2409 0.325627 16.2847 0.342575C16.3383 0.364073 16.392 0.385571 16.4447 0.407068C16.4894 0.424998 16.5332 0.442928 16.577 0.46166C16.628 0.483158 16.678 0.504655 16.7281 0.526153C16.7844 0.550327 16.8408 0.575392 16.897 0.600458C17.0258 0.657815 17.1536 0.716867 17.2805 0.777792C17.3368 0.804641 17.3932 0.832383 17.4486 0.860214C17.5559 0.913022 17.6631 0.967702 17.7695 1.02319C17.824 1.05182 17.8777 1.07956 17.9313 1.10918C17.9965 1.14414 18.0609 1.17902 18.1252 1.21577C18.5105 1.42888 18.8885 1.65902 19.2605 1.90441C19.3257 1.94741 19.3901 1.9904 19.4545 2.03429C19.9622 2.37905 20.4574 2.75335 20.9384 3.15279C20.9983 3.20203 21.0572 3.25216 21.1163 3.30238C21.3048 3.46268 21.4917 3.62654 21.6759 3.79496C21.734 3.84866 21.7921 3.90244 21.8502 3.95614C22.1497 4.23463 22.4429 4.52391 22.7308 4.82301C22.7799 4.87492 22.8299 4.92693 22.8792 4.97973C22.9418 5.04601 23.0043 5.11229 23.066 5.17946C23.1143 5.23227 23.1625 5.28516 23.2108 5.33797C23.2662 5.39889 23.3207 5.45884 23.3752 5.52066C23.436 5.58872 23.4959 5.65678 23.5558 5.72573C23.5978 5.77408 23.6399 5.82332 23.6819 5.87166C23.7409 5.94062 23.799 6.00957 23.8571 6.07852C23.9098 6.14212 23.9626 6.20483 24.0145 6.26835C24.0672 6.33195 24.12 6.39644 24.1709 6.46084C24.2201 6.52088 24.2683 6.58171 24.3157 6.64264C24.3469 6.68028 24.3765 6.71783 24.406 6.75637C24.448 6.80828 24.4891 6.86118 24.5293 6.91488C24.5633 6.95877 24.5972 7.00266 24.6303 7.04654C24.7312 7.1791 24.8305 7.31254 24.9297 7.44688C25.0298 7.58389 25.1291 7.72091 25.2265 7.85971C25.2739 7.92598 25.3194 7.99226 25.3659 8.05854C25.4133 8.1266 25.4607 8.19644 25.508 8.2654C25.5554 8.33435 25.6019 8.40419 25.6484 8.47404C25.6859 8.52863 25.7225 8.5842 25.7592 8.63969C26.4618 9.70627 27.1019 10.8292 27.6731 11.9872C27.7401 12.1233 27.8063 12.2594 27.8715 12.3964C28.1933 13.0708 28.491 13.7559 28.7645 14.4481C28.7949 14.5251 28.8253 14.6021 28.8548 14.6791C28.8852 14.7561 28.9147 14.8332 28.9433 14.911C28.9728 14.988 29.0015 15.0651 29.0301 15.143C29.0586 15.2199 29.0873 15.297 29.115 15.3749C29.2026 15.6176 29.2876 15.8611 29.3689 16.1047C29.3912 16.1728 29.4144 16.24 29.4359 16.308C29.4618 16.3859 29.4877 16.4639 29.5119 16.5417C29.5369 16.6205 29.5619 16.6985 29.586 16.7763C29.6522 16.9894 29.7157 17.2026 29.7773 17.4157C29.7889 17.4569 29.8005 17.4973 29.8122 17.5375C29.8292 17.5966 29.8452 17.6557 29.8622 17.7148C29.8837 17.7936 29.9052 17.8724 29.9266 17.9503C29.9472 18.0282 29.9677 18.107 29.9883 18.1849C30.0107 18.2673 30.0312 18.3497 30.0518 18.4321C30.0876 18.5745 30.1224 18.7168 30.1573 18.8593C30.1779 18.9479 30.1985 19.0366 30.219 19.1253C30.2529 19.2775 30.287 19.4288 30.3191 19.5811C30.32 19.5856 30.3209 19.59 30.3218 19.5946C30.3548 19.7504 30.3862 19.9054 30.4165 20.0602C30.5229 20.6074 30.6132 21.1527 30.6856 21.6937C30.6963 21.7715 30.7062 21.8486 30.716 21.9256C30.7195 21.956 30.7231 21.9856 30.7266 22.016C30.7445 22.1575 30.7607 22.2981 30.7749 22.4387C30.7838 22.5175 30.7919 22.5963 30.799 22.6742C30.8143 22.8309 30.8285 22.9876 30.8402 23.1426C30.8517 23.294 30.8625 23.4452 30.8714 23.5957C30.8768 23.6862 30.8821 23.7766 30.8858 23.8662C30.8893 23.9333 30.892 24.0014 30.8956 24.0686V24.073C30.8982 24.1465 30.9009 24.2199 30.9036 24.2925V24.3113C30.9053 24.3507 30.9062 24.3901 30.9071 24.4295C30.908 24.4626 30.9089 24.4958 30.9089 24.5289C30.9107 24.6076 30.9116 24.6865 30.9116 24.7644Z" fill="url(#paint2_radial_68_1663)"/>
<path d="M27.9667 24.0899C27.6911 29.88 22.7647 34.4478 16.9895 34.0886C11.2606 33.7322 6.92287 28.7747 7.31198 23.0458C7.51215 20.0998 8.98462 17.5297 11.1453 15.7856C14.8012 12.8345 17.1655 7.94709 17.0874 3.24428C17.0874 3.24392 17.0876 3.24258 17.0882 3.24035C17.1752 2.91289 17.537 2.74136 17.8476 2.87543C24.7222 5.84139 28.3267 16.5244 27.9667 24.0899Z" fill="url(#paint3_linear_68_1663)"/>
</g>
<defs>
<radialGradient id="paint0_radial_68_1663" cx="0" cy="0" r="1" gradientUnits="userSpaceOnUse" gradientTransform="translate(4.34345 -0.0699891) scale(37.6861 37.7542)">
<stop stop-color="#FFCF42"/>
<stop offset="0.262" stop-color="#FFCD42"/>
<stop offset="0.408" stop-color="#FFC540"/>
<stop offset="0.525" stop-color="#FFB73E"/>
<stop offset="0.628" stop-color="#FFA33A"/>
<stop offset="0.72" stop-color="#FF8A35"/>
<stop offset="0.805" stop-color="#FF6A30"/>
<stop offset="0.885" stop-color="#FF4529"/>
<stop offset="0.958" stop-color="#FF1B21"/>
<stop offset="1" stop-color="#FF001C"/>
</radialGradient>
<radialGradient id="paint1_radial_68_1663" cx="0" cy="0" r="1" gradientUnits="userSpaceOnUse" gradientTransform="translate(19.3612 20.5675) scale(14.1421 14.1677)">
<stop stop-color="#FFB500" stop-opacity="0"/>
<stop offset="0.109" stop-color="#FCAD01" stop-opacity="0.109"/>
<stop offset="0.281" stop-color="#F49605" stop-opacity="0.281"/>
<stop offset="0.496" stop-color="#E8710B" stop-opacity="0.496"/>
<stop offset="0.744" stop-color="#D63D13" stop-opacity="0.744"/>
<stop offset="1" stop-color="#C1001C"/>
</radialGradient>
<radialGradient id="paint2_radial_68_1663" cx="0" cy="0" r="1" gradientUnits="userSpaceOnUse" gradientTransform="translate(14.5136 11.9449) scale(25.0958 25.1411)">
<stop stop-color="#F9C6A0" stop-opacity="0"/>
<stop offset="0.014" stop-color="#F9C69E" stop-opacity="0"/>
<stop offset="0.02" stop-color="#FAC797" stop-opacity="0"/>
<stop offset="0.023" stop-color="#FAC88C" stop-opacity="0"/>
<stop offset="0.026" stop-color="#FBCA7B" stop-opacity="0"/>
<stop offset="0.029" stop-color="#FDCC65" stop-opacity="0"/>
<stop offset="0.031" stop-color="#FECE4A" stop-opacity="0"/>
<stop offset="0.032" stop-color="#FFCF42" stop-opacity="0"/>
<stop offset="0.408" stop-color="#FFCD42" stop-opacity="0.389"/>
<stop offset="0.543" stop-color="#FFC640" stop-opacity="0.529"/>
<stop offset="0.64" stop-color="#FFBB3E" stop-opacity="0.628"/>
<stop offset="0.718" stop-color="#FFAA3B" stop-opacity="0.709"/>
<stop offset="0.785" stop-color="#FF9437" stop-opacity="0.778"/>
<stop offset="0.845" stop-color="#FF7832" stop-opacity="0.839"/>
<stop offset="0.898" stop-color="#FF582C" stop-opacity="0.895"/>
<stop offset="0.947" stop-color="#FF3225" stop-opacity="0.946"/>
<stop offset="0.991" stop-color="#FF091E" stop-opacity="0.991"/>
<stop offset="1" stop-color="#FF001C"/>
</radialGradient>
<linearGradient id="paint3_linear_68_1663" x1="22.758" y1="16.2346" x2="45.9593" y2="2.79014" gradientUnits="userSpaceOnUse">
<stop offset="0.0001" stop-color="#E7EEED" stop-opacity="0"/>
<stop offset="1" stop-color="#E7EEED"/>
</linearGradient>
<clipPath id="clip0_68_1663">
<rect width="26" height="38" fill="white" transform="translate(5)"/>
</clipPath>
</defs>
</svg>
