<svg width="16" height="16" viewBox="0 0 16 16" fill="none" xmlns="http://www.w3.org/2000/svg">
<path d="M12.1266 11.8333H5.02658C4.36658 11.8333 3.73325 11.5533 3.28658 11.0666C2.83991 10.5799 2.61325 9.92658 2.66659 9.26658L3.21992 2.62659C3.23992 2.41992 3.16658 2.21992 3.02658 2.06659C2.88658 1.91326 2.69325 1.83325 2.48658 1.83325H1.33325C1.05992 1.83325 0.833252 1.60659 0.833252 1.33325C0.833252 1.05992 1.05992 0.833252 1.33325 0.833252H2.49326C2.97992 0.833252 3.43991 1.03992 3.76658 1.39325C3.94658 1.59325 4.07992 1.82659 4.15325 2.08659H12.4799C13.1533 2.08659 13.7732 2.35325 14.2266 2.83325C14.6733 3.31992 14.8999 3.95325 14.8466 4.62659L14.4866 9.62659C14.4132 10.8466 13.3466 11.8333 12.1266 11.8333ZM4.18658 3.07992L3.66659 9.34658C3.63325 9.73324 3.75992 10.0999 4.01992 10.3866C4.27992 10.6732 4.63991 10.8266 5.02658 10.8266H12.1266C12.8199 10.8266 13.4466 10.2399 13.4999 9.54659L13.8599 4.54659C13.8866 4.15326 13.7599 3.77993 13.4999 3.50659C13.2399 3.22659 12.8799 3.07324 12.4866 3.07324H4.18658V3.07992Z" fill="#4E5556"/>
<path d="M10.8333 15.1667C10.1 15.1667 9.5 14.5667 9.5 13.8333C9.5 13.1 10.1 12.5 10.8333 12.5C11.5667 12.5 12.1667 13.1 12.1667 13.8333C12.1667 14.5667 11.5667 15.1667 10.8333 15.1667ZM10.8333 13.5C10.6467 13.5 10.5 13.6467 10.5 13.8333C10.5 14.02 10.6467 14.1667 10.8333 14.1667C11.02 14.1667 11.1667 14.02 11.1667 13.8333C11.1667 13.6467 11.02 13.5 10.8333 13.5Z" fill="#4E5556"/>
<path d="M5.50008 15.1667C4.76675 15.1667 4.16675 14.5667 4.16675 13.8333C4.16675 13.1 4.76675 12.5 5.50008 12.5C6.23341 12.5 6.83342 13.1 6.83342 13.8333C6.83342 14.5667 6.23341 15.1667 5.50008 15.1667ZM5.50008 13.5C5.31341 13.5 5.16675 13.6467 5.16675 13.8333C5.16675 14.02 5.31341 14.1667 5.50008 14.1667C5.68675 14.1667 5.83341 14.02 5.83341 13.8333C5.83341 13.6467 5.68675 13.5 5.50008 13.5Z" fill="#4E5556"/>
<path d="M14 5.83325H6C5.72667 5.83325 5.5 5.60659 5.5 5.33325C5.5 5.05992 5.72667 4.83325 6 4.83325H14C14.2733 4.83325 14.5 5.05992 14.5 5.33325C14.5 5.60659 14.2733 5.83325 14 5.83325Z" fill="#4E5556"/>
</svg>
